<svg width="2442" height="943" viewBox="0 0 2442 943" fill="none" xmlns="http://www.w3.org/2000/svg">
  <defs>
    <linearGradient id="animatedGradient" x1="0%" y1="0%" x2="100%" y2="0%" gradientUnits="objectBoundingBox">
      <stop offset="0%" stop-color="#ABFF9F" />
      <stop offset="100%" stop-color="#00026D" />
      <animateTransform
        attributeName="gradientTransform"
        type="rotate"
        from="0 0.5 0.5"
        to="360 0.5 0.5"
        dur="10s"
        repeatCount="indefinite"
      />
    </linearGradient>
  </defs>

  <path d="M147 753V188L478 437.905L501.5 357H765L616 753H394L443.5 575.554L2 940.5L147 753Z" fill="url(#animatedGradient)"/>
  <path d="M443.5 295.5L376 217.5H1300.5L1339 295.5H1032L765 900.5H121.5L254.5 809.5H641.5L861 295.5H443.5Z" fill="url(#animatedGradient)"/>
  <path d="M883 753L1046.5 357H1419L1271.5 753H883Z" fill="url(#animatedGradient)"/>
  <path d="M1288 809.5H883V900.5H1406L1558.5 470L1680.5 459L1558.5 784L1635 900.5L1833 357H1600.5L1635 268L1504 241L1288 809.5Z" fill="url(#animatedGradient)"/>
  <path d="M1925.5 217.5L1767.5 63L1945.5 3L2029 188L1925.5 357V217.5Z" fill="url(#animatedGradient)"/>
  <path d="M2172.5 377V188V84.5L2289 177.5V391.5H2439.5V517H2289L2149 860.5L1989 927.5L2172.5 517L1967.5 599L1925.5 481.949L2172.5 377Z" fill="url(#animatedGradient)"/>
  <path d="M443.5 575.554L2 940.5L147 753V188L478 437.905M443.5 575.554L394 753H616L765 357H501.5L478 437.905M443.5 575.554L528.5 505.292M478 437.905L536.336 481.949M528.5 505.292L547 490L536.336 481.949M528.5 505.292L514 617L547 682.5L672 419H547L536.336 481.949M254.5 377L456 490L254.5 660.5V377ZM376 217.5L443.5 295.5H861L641.5 809.5H254.5L121.5 900.5H765L1032 295.5H1339L1300.5 217.5H376ZM1046.5 357L883 753H1271.5L1419 357H1046.5ZM1131.5 419H1320.5L1177 669.5L1032 682.5L1131.5 419ZM883 809.5H1288L1504 241L1635 268L1600.5 357H1833L1635 900.5L1558.5 784L1680.5 459L1558.5 470L1406 900.5H883V809.5ZM1767.5 63L1925.5 217.5V357L2029 188L1945.5 3L1767.5 63ZM2172.5 188V377L1925.5 481.949L1967.5 599L2172.5 517L1989 927.5L2149 860.5L2289 517H2439.5V391.5H2289V177.5L2172.5 84.5V188Z" stroke="url(#animatedGradient)" stroke-width="4"/>
  <path d="M1177.5 671.5L1032.5 684.5L1131.5 421H1320L1177.5 671.5Z" fill="black"/>
  <path d="M454 488.5L255 376.5V661L454 488.5Z" fill="black"/>
  <path d="M1177.5 671.5L1032.5 684.5L1131.5 421H1320L1177.5 671.5Z" stroke="url(#animatedGradient)" stroke-width="4"/>
  <path d="M454 488.5L255 376.5V661L454 488.5Z" stroke="url(#animatedGradient)" stroke-width="4"/>
  <path d="M547 682L514.5 614L528.5 509L547 489.5L535.5 480L547 419H670.5L547 682Z" fill="black" stroke="url(#animatedGradient)" stroke-width="4"/>
</svg>
